<svg width="778" height="355" viewBox="0 0 778 355" fill="none" xmlns="http://www.w3.org/2000/svg">
<path d="M309.712 239V137.696H369.94V145.256H317.272V154.328H369.94V161.888H317.272V176.252H361.876V183.812H317.272V192.884H361.876V200.444H317.272V214.808H369.94V222.368H317.272V231.44H369.94V239H309.712ZM293.08 239V137.696H300.64V239H293.08ZM389.667 239L426.459 137.696H434.523L471.315 239H463.251L430.491 148.784L425.703 161.888L453.675 239H445.611L441.327 226.904H402.015L397.731 239H389.667ZM372.027 239L408.819 137.696H416.883L380.091 239H372.027ZM410.835 202.712H432.507L421.671 172.976L410.835 202.712ZM404.787 219.344H438.555L435.279 210.272H408.063L404.787 219.344ZM495.523 239V137.696H535.087C543.319 137.864 550.375 140.72 556.255 146.264C562.135 151.64 565.075 159.116 565.075 168.692C565.075 176.084 563.227 182.3 559.531 187.34C556.003 192.38 551.383 195.908 545.671 197.924L563.311 239H554.995L538.363 199.436C537.019 199.604 535.927 199.688 535.087 199.688H528.535L545.167 239H536.851L520.219 199.688H503.083V239H495.523ZM478.891 239V137.696H486.451V239H478.891ZM534.583 145.256H503.083V154.328H535.087C539.119 154.496 542.311 155.924 544.663 158.612C547.183 161.132 548.443 164.492 548.443 168.692C548.443 172.892 547.183 176.336 544.663 179.024C542.143 181.712 538.951 183.056 535.087 183.056H503.083V192.128H534.583C540.967 192.128 546.343 190.196 550.711 186.332C555.247 182.3 557.515 176.42 557.515 168.692C557.515 160.964 555.247 155.168 550.711 151.304C546.343 147.272 540.967 145.256 534.583 145.256ZM534.583 161.888H503.083V175.496H534.583C536.431 175.496 537.943 174.992 539.119 173.984C540.295 172.808 540.883 171.044 540.883 168.692C540.883 166.34 540.295 164.66 539.119 163.652C537.943 162.476 536.431 161.888 534.583 161.888ZM577.702 239V137.696H585.262V239H577.702ZM661.87 239V137.696H669.43V239H661.87ZM645.238 210.776L601.894 150.548V165.92L645.238 226.148V210.776ZM594.334 239V137.696H601.894L645.238 197.924V137.696H652.798V239H645.238L601.894 178.772V239H594.334ZM684.635 145.256V137.696H767.543V145.256H684.635ZM684.635 222.368V214.808L734.531 161.888H744.863L694.967 214.808H707.315L757.211 161.888H684.635V154.328H767.543V161.888L717.647 214.808H767.543V222.368H684.635ZM684.635 239V231.44H767.543V239H684.635Z" fill="white"/>
<path d="M151.711 239V137.696H159.271V214.808H204.379V222.368H159.271V231.44H204.379V239H151.711ZM135.079 239V137.696H142.639V239H135.079Z" fill="white"/>
<path d="M245.253 282.297C241.863 278.995 239.226 275.324 237.341 271.285L235.367 266.531C234.051 263.361 231.86 260.282 228.794 257.294C224.436 253.048 219.184 250.448 213.036 249.492L217.164 245.255C220.201 246.012 222.884 247.053 225.212 248.377C227.618 249.621 229.951 251.343 232.211 253.545C235.519 256.768 238.197 260.478 240.243 264.674L242.214 269.19C243.693 272.677 245.886 275.835 248.791 278.666C253.068 282.833 258.28 285.394 264.427 286.35L260.299 290.587C257.262 289.829 254.54 288.829 252.134 287.586C249.887 286.34 247.593 284.577 245.253 282.297ZM237.115 290.649C235.34 288.919 233.763 287.147 232.385 285.333C231.166 283.516 230.106 281.618 229.204 279.637L227.23 274.883C225.914 271.713 223.722 268.634 220.656 265.646C216.298 261.4 211.046 258.8 204.899 257.844L209.026 253.607C212.064 254.365 214.746 255.405 217.074 256.729C219.481 257.973 221.813 259.695 224.073 261.897C225.687 263.469 227.183 265.163 228.561 266.978C230.02 268.871 231.201 270.887 232.105 273.027L234.076 277.542C235.556 281.029 237.748 284.187 240.653 287.018C244.93 291.185 250.142 293.746 256.29 294.702L252.162 298.939C249.124 298.181 246.402 297.181 243.996 295.938C241.749 294.692 239.455 292.929 237.115 290.649Z" fill="white"/>
<path d="M212.111 297.836C187.497 310.707 159.105 314.354 132.097 308.115C105.089 301.875 81.2577 286.163 64.9356 263.835C48.6135 241.506 40.8843 214.044 43.1531 186.441C45.4219 158.837 57.5381 132.925 77.299 113.414C97.0599 93.9037 123.154 82.0906 150.836 80.1223C178.519 78.154 205.953 86.1612 228.151 102.688C250.349 119.215 265.837 143.165 271.799 170.184C277.762 197.202 273.803 225.495 260.643 249.92L254.165 246.462C266.49 223.588 270.197 197.091 264.613 171.789C259.03 146.486 244.525 124.057 223.737 108.579C202.948 93.1017 177.257 85.6029 151.332 87.4462C125.407 89.2895 100.97 100.352 82.4639 118.624C63.9578 136.896 52.611 161.162 50.4863 187.013C48.3616 212.864 55.5999 238.582 70.8856 259.493C86.1712 280.404 108.489 295.118 133.782 300.961C159.076 306.805 185.665 303.389 208.716 291.335L212.111 297.836Z" fill="#E75D74"/>
<path d="M203.787 284.6C182.565 295.691 158.068 298.799 134.749 293.359C111.43 287.919 90.8367 274.291 76.7136 254.954C62.5906 235.617 55.8751 211.854 57.788 187.985C59.7009 164.116 70.1152 141.726 87.1377 124.885C104.16 108.044 126.661 97.8706 150.549 96.2136C174.437 94.5566 198.126 101.526 217.311 115.856C236.495 130.185 249.901 150.923 255.091 174.299C260.281 197.676 256.911 222.138 245.593 243.24L239.116 239.766C249.602 220.215 252.725 197.551 247.916 175.892C243.107 154.234 230.687 135.021 212.912 121.745C195.138 108.468 173.189 102.011 151.057 103.546C128.925 105.081 108.078 114.507 92.307 130.11C76.5357 145.713 66.8868 166.458 65.1145 188.572C63.3422 210.687 69.5641 232.703 82.6491 250.619C95.7341 268.535 114.813 281.161 136.419 286.201C158.024 291.241 180.721 288.362 200.383 278.086L203.787 284.6Z" fill="#E75D74"/>
<path d="M196.117 271.76C178.079 281.188 157.256 283.829 137.435 279.205C117.613 274.581 100.109 262.998 88.1049 246.561C76.1003 230.125 70.3921 209.926 72.0181 189.638C73.6441 169.349 82.4962 150.317 96.9653 136.003C111.434 121.688 130.56 113.04 150.865 111.632C171.169 110.223 191.306 116.148 207.612 128.328C223.919 140.508 235.314 158.135 239.726 178.005C244.137 197.874 241.273 218.668 231.652 236.604L226.147 233.651C235.06 217.033 237.714 197.768 233.627 179.359C229.54 160.949 218.982 144.618 203.874 133.333C188.765 122.048 170.109 116.559 151.297 117.864C132.485 119.169 114.765 127.181 101.359 140.444C87.9536 153.707 79.7521 171.339 78.2456 190.137C76.7392 208.934 82.0278 227.648 93.15 242.876C104.272 258.105 120.49 268.837 138.854 273.121C157.219 277.405 176.511 274.958 193.224 266.223L196.117 271.76Z" fill="#E75D74"/>
</svg>
