<svg width="35" height="34" viewBox="0 0 35 34" fill="none" xmlns="http://www.w3.org/2000/svg">
<path d="M31.6094 12.8031C30.8407 11.0358 29.7264 9.43004 28.3281 8.075C26.9332 6.71669 25.2803 5.63419 23.4609 4.8875C21.5708 4.11055 19.5679 3.71875 17.5 3.71875C15.4321 3.71875 13.4292 4.11055 11.5391 4.8875C9.71971 5.63419 8.06677 6.71669 6.67188 8.075C5.27361 9.43004 4.15927 11.0358 3.39062 12.8031C2.59082 14.6393 2.1875 16.585 2.1875 18.5938C2.1875 22.9998 4.18018 27.1502 7.65283 29.9857L7.71094 30.0322C7.90918 30.1916 8.15869 30.2812 8.41504 30.2812H26.5884C26.8447 30.2812 27.0942 30.1916 27.2925 30.0322L27.3506 29.9857C30.8198 27.1502 32.8125 22.9998 32.8125 18.5938C32.8125 16.585 32.4058 14.6393 31.6094 12.8031ZM26.0244 27.7578H8.97559C7.65487 26.601 6.5993 25.1873 5.87739 23.6086C5.15548 22.0298 4.78335 20.3213 4.78516 18.5938C4.78516 15.2934 6.10791 12.1922 8.51074 9.86133C10.9136 7.52715 14.106 6.24219 17.5 6.24219C20.8975 6.24219 24.0898 7.52715 26.4893 9.86133C28.8921 12.1955 30.2148 15.2967 30.2148 18.5938C30.2148 22.1 28.6938 25.417 26.0244 27.7578ZM21.311 13.9951C21.2596 13.9457 21.1902 13.918 21.1179 13.918C21.0456 13.918 20.9762 13.9457 20.9248 13.9951L18.0366 16.8008C17.3975 16.6348 16.6899 16.7941 16.1875 17.2822C16.0095 17.4548 15.8684 17.6597 15.772 17.8853C15.6757 18.111 15.6261 18.3528 15.6261 18.5971C15.6261 18.8413 15.6757 19.0832 15.772 19.3088C15.8684 19.5344 16.0095 19.7394 16.1875 19.9119C16.3651 20.0848 16.5761 20.2219 16.8084 20.3155C17.0406 20.4091 17.2896 20.4573 17.541 20.4573C17.7925 20.4573 18.0414 20.4091 18.2737 20.3155C18.5059 20.2219 18.7169 20.0848 18.8945 19.9119C19.1326 19.6814 19.3038 19.3939 19.3908 19.0785C19.4778 18.7631 19.4776 18.4309 19.3901 18.1156L22.2783 15.31C22.3843 15.207 22.3843 15.0377 22.2783 14.9348L21.311 13.9951ZM16.748 10.625H18.252C18.4023 10.625 18.5254 10.5055 18.5254 10.3594V7.70312C18.5254 7.55703 18.4023 7.4375 18.252 7.4375H16.748C16.5977 7.4375 16.4746 7.55703 16.4746 7.70312V10.3594C16.4746 10.5055 16.5977 10.625 16.748 10.625ZM25.6348 17.8633V19.3242C25.6348 19.4703 25.7578 19.5898 25.9082 19.5898H28.6426C28.793 19.5898 28.916 19.4703 28.916 19.3242V17.8633C28.916 17.7172 28.793 17.5977 28.6426 17.5977H25.9082C25.7578 17.5977 25.6348 17.7172 25.6348 17.8633ZM26.0688 11.3156L25.0059 10.283C24.9545 10.2336 24.8851 10.2058 24.8127 10.2058C24.7404 10.2058 24.671 10.2336 24.6196 10.283L22.6851 12.1623C22.6342 12.2122 22.6056 12.2796 22.6056 12.3499C22.6056 12.4202 22.6342 12.4876 22.6851 12.5375L23.748 13.5701C23.854 13.673 24.0283 13.673 24.1343 13.5701L26.0688 11.6908C26.1748 11.5879 26.1748 11.4186 26.0688 11.3156ZM10.394 10.283C10.3427 10.2336 10.2733 10.2058 10.2009 10.2058C10.1286 10.2058 10.0592 10.2336 10.0078 10.283L8.94482 11.3156C8.89394 11.3655 8.86539 11.433 8.86539 11.5032C8.86539 11.5735 8.89394 11.6409 8.94482 11.6908L10.8794 13.5701C10.9854 13.673 11.1597 13.673 11.2656 13.5701L12.3286 12.5375C12.4346 12.4346 12.4346 12.2652 12.3286 12.1623L10.394 10.283ZM8.95508 17.5977H6.2207C6.07031 17.5977 5.94727 17.7172 5.94727 17.8633V19.3242C5.94727 19.4703 6.07031 19.5898 6.2207 19.5898H8.95508C9.10547 19.5898 9.22852 19.4703 9.22852 19.3242V17.8633C9.22852 17.7172 9.10547 17.5977 8.95508 17.5977Z" fill="#2F403A"/>
</svg>
