<svg width="38" height="38" viewBox="0 0 38 38" fill="none" xmlns="http://www.w3.org/2000/svg">
<path d="M32.2109 10.8359H29.6021C29.424 10.8359 29.257 10.758 29.1457 10.6207C28.8859 10.3053 28.6076 10.001 28.3144 9.71152C27.1154 8.5113 25.6951 7.5548 24.1322 6.89492C22.513 6.211 20.7726 5.86015 19.0148 5.86328C17.2373 5.86328 15.5154 6.21211 13.8974 6.89492C12.3345 7.5548 10.9142 8.5113 9.71521 9.71152C8.51403 10.9077 7.55625 12.3255 6.89489 13.8863C6.20837 15.5043 5.86325 17.2225 5.86325 19C5.86325 20.7775 6.21208 22.4957 6.89489 24.1137C7.55544 25.676 8.50544 27.0824 9.71521 28.2885C10.925 29.4945 12.3314 30.4445 13.8974 31.1051C15.5154 31.7879 17.2373 32.1367 19.0148 32.1367C20.7924 32.1367 22.5142 31.7916 24.1322 31.1051C25.6982 30.4445 27.1047 29.4945 28.3144 28.2885C28.6076 27.9953 28.8822 27.691 29.1457 27.3793C29.257 27.242 29.4277 27.1641 29.6021 27.1641H32.2109C32.4447 27.1641 32.5894 27.4238 32.4595 27.6205C29.6133 32.0439 24.6332 34.9719 18.974 34.957C10.0826 34.9348 2.95388 27.717 3.04294 18.8367C3.132 10.0975 10.2496 3.04297 19.0148 3.04297C24.6592 3.04297 29.617 5.96719 32.4595 10.3795C32.5857 10.5762 32.4447 10.8359 32.2109 10.8359ZM35.5099 19.2338L30.2441 23.39C30.0474 23.5459 29.7617 23.4049 29.7617 23.1563V20.3359H18.1093C17.9461 20.3359 17.8125 20.2023 17.8125 20.0391V17.9609C17.8125 17.7977 17.9461 17.6641 18.1093 17.6641H29.7617V14.8438C29.7617 14.5951 30.0511 14.4541 30.2441 14.61L35.5099 18.7662C35.5454 18.794 35.5741 18.8295 35.5938 18.87C35.6136 18.9105 35.6238 18.9549 35.6238 19C35.6238 19.0451 35.6136 19.0895 35.5938 19.13C35.5741 19.1705 35.5454 19.206 35.5099 19.2338Z" fill="#2F403A"/>
</svg>
