<svg width="40" height="40" viewBox="0 0 40 40" fill="none" xmlns="http://www.w3.org/2000/svg">
<path fill-rule="evenodd" clip-rule="evenodd" d="M19.1513 0.0266536C21.2842 -0.147642 23.0679 0.532893 24.5024 2.06824C25.2463 3.42955 25.3715 4.85241 24.8779 6.33701C23.7835 9.39364 22.2189 12.1776 20.184 14.689C18.1451 12.2058 16.6431 9.42185 15.6778 6.33701C14.8352 3.11324 15.9931 1.00979 19.1513 0.0266536Z" fill="#176B87"/>
<path fill-rule="evenodd" clip-rule="evenodd" d="M8.63696 4.10982C10.9689 3.94742 12.6901 4.87541 13.8003 6.8938C15.2595 9.75592 16.1044 12.7873 16.335 15.9881C12.927 15.717 9.73516 14.758 6.75939 13.1114C4.31893 11.3459 3.84954 9.14975 5.35122 6.5226C6.21133 5.3923 7.30671 4.5881 8.63696 4.10982Z" fill="#176B87"/>
<path fill-rule="evenodd" clip-rule="evenodd" d="M29.4782 4.48109C33.7031 4.29122 35.8623 6.271 35.9558 10.4203C35.2155 12.1994 33.9325 13.4678 32.1068 14.225C29.4988 15.254 26.8075 15.9654 24.0332 16.3594C24.1489 12.5643 25.3066 9.09972 27.5067 5.96588C28.0587 5.30942 28.7159 4.81461 29.4782 4.48109Z" fill="#E75D74"/>
<path fill-rule="evenodd" clip-rule="evenodd" d="M3.19187 14.8744C6.06117 14.8382 8.68977 15.6114 11.0777 17.1944C12.3294 18.0606 13.581 18.9266 14.8328 19.7928C12.722 21.32 10.469 22.6192 8.07355 23.6903C6.3721 24.4455 4.61958 24.6311 2.81636 24.2471C0.949488 23.3119 0.0107022 21.7961 0 19.7C0.0418698 17.3807 1.10589 15.7723 3.19187 14.8744Z" fill="#176B87"/>
<path fill-rule="evenodd" clip-rule="evenodd" d="M34.3595 15.2458C38.6246 15.1617 40.4708 17.2033 39.8983 21.3705C39.3185 23.7694 37.7851 24.9448 35.2983 24.8969C33.2929 24.638 31.4153 23.9884 29.6656 22.9481C28.1742 22.0305 26.7349 21.0407 25.3472 19.9786C28.067 17.8611 31.0711 16.2835 34.3595 15.2458Z" fill="#E75D74"/>
<path fill-rule="evenodd" clip-rule="evenodd" d="M19.1511 17.4729C22.0512 17.3981 23.0213 18.6973 22.0613 21.3705C20.3961 22.7656 18.9566 22.58 17.7429 20.8137C17.3403 19.3224 17.8097 18.2088 19.1511 17.4729Z" fill="#176B87"/>
<path fill-rule="evenodd" clip-rule="evenodd" d="M15.0206 23.5979C15.3961 23.5979 15.7717 23.5979 16.1472 23.5979C15.7929 26.793 14.8854 29.8246 13.4247 32.6922C11.0192 35.8652 8.32784 36.1126 5.35114 33.4346C3.56595 31.0736 3.72235 28.8773 5.82053 26.8459C8.65529 25.0769 11.7219 23.9943 15.0206 23.5979Z" fill="#176B87"/>
<path fill-rule="evenodd" clip-rule="evenodd" d="M23.8447 23.7834C27.3257 24.1127 30.5803 25.1335 33.6081 26.8458C36.2222 29.1439 36.3475 31.5877 33.9836 34.177C30.6121 36.6453 27.9521 36.0267 26.0039 32.321C24.7644 29.6036 24.0445 26.7579 23.8447 23.7834Z" fill="#E75D74"/>
<path fill-rule="evenodd" clip-rule="evenodd" d="M19.9024 25.4536C21.9184 27.9527 23.4518 30.7367 24.5025 33.8056C25.0303 38.6038 22.8711 40.6144 18.0249 39.8375C15.4509 38.7135 14.4808 36.7647 15.1146 33.9912C16.2763 30.8889 17.8722 28.0431 19.9024 25.4536Z" fill="#176B87"/>
</svg>
