<svg width="38" height="36" viewBox="0 0 38 36" fill="none" xmlns="http://www.w3.org/2000/svg">
<path d="M35.625 20.25H23.75V27.5265C23.753 28.5913 24.0735 29.6335 24.6746 30.5332C25.2757 31.4329 26.1329 32.1533 27.1474 32.6115L29.6875 33.75L32.2276 32.6104C33.2421 32.1522 34.0993 31.4318 34.7004 30.5321C35.3015 29.6324 35.622 28.5901 35.625 27.5254V20.25ZM29.6875 31.2592L28.1639 30.5764C27.5552 30.3018 27.0408 29.8697 26.68 29.3301C26.3193 28.7905 26.1269 28.1652 26.125 27.5265V22.5H33.25V27.5265C33.2479 28.1651 33.0554 28.79 32.6946 29.3294C32.3339 29.8689 31.8196 30.3007 31.2111 30.5752L29.6875 31.2604V31.2592ZM20.1875 20.25H5.9375C5.30761 20.25 4.70352 20.4871 4.25812 20.909C3.81272 21.331 3.5625 21.9033 3.5625 22.5V28.125C3.5625 28.7217 3.81272 29.294 4.25812 29.716C4.70352 30.1379 5.30761 30.375 5.9375 30.375H20.1875V28.125H5.9375V22.5H20.1875V20.25ZM32.0625 4.5H26.125C25.4951 4.5 24.891 4.73705 24.4456 5.15901C24.0002 5.58097 23.75 6.15326 23.75 6.75V16.875H26.125V6.75H32.0625V16.875H34.4375V6.75C34.4375 6.15326 34.1873 5.58097 33.7419 5.15901C33.2965 4.73705 32.6924 4.5 32.0625 4.5ZM17.8125 4.5H5.9375C5.30761 4.5 4.70352 4.73705 4.25812 5.15901C3.81272 5.58097 3.5625 6.15326 3.5625 6.75V14.625C3.5625 15.2217 3.81272 15.794 4.25812 16.216C4.70352 16.6379 5.30761 16.875 5.9375 16.875H17.8125C18.4424 16.875 19.0465 16.6379 19.4919 16.216C19.9373 15.794 20.1875 15.2217 20.1875 14.625V6.75C20.1875 6.15326 19.9373 5.58097 19.4919 5.15901C19.0465 4.73705 18.4424 4.5 17.8125 4.5ZM5.9375 14.625V6.75H17.8125V14.625H5.9375Z" fill="#2F403A"/>
</svg>
