<svg width="63" height="64" viewBox="0 0 63 64" fill="none" xmlns="http://www.w3.org/2000/svg">
<path fill-rule="evenodd" clip-rule="evenodd" d="M30.1632 0.0424675C33.5226 -0.235241 36.3319 0.849066 38.5912 3.29536C39.7628 5.46436 39.9601 7.73142 39.1826 10.0969C37.4589 14.967 34.9947 19.4028 31.7897 23.4041C28.5785 19.4477 26.2127 15.012 24.6925 10.0969C23.3653 4.96037 25.189 1.60891 30.1632 0.0424675Z" fill="#176B87"/>
<path fill-rule="evenodd" clip-rule="evenodd" d="M13.603 6.54822C17.2758 6.28947 19.9867 7.76806 21.7353 10.984C24.0336 15.5442 25.3643 20.3742 25.7274 25.4741C20.3599 25.0421 15.3327 23.5141 10.6459 20.8905C6.80212 18.0777 6.06282 14.5784 8.42797 10.3925C9.78265 8.59163 11.5079 7.31028 13.603 6.54822Z" fill="#176B87"/>
<path fill-rule="evenodd" clip-rule="evenodd" d="M46.4276 7.13967C53.0818 6.83715 56.4826 9.99157 56.6299 16.6026C55.4638 19.4374 53.4432 21.4583 50.5677 22.6648C46.4601 24.3043 42.2213 25.4378 37.8518 26.0656C38.034 20.0188 39.8574 14.4986 43.3226 9.50541C44.192 8.45945 45.227 7.67107 46.4276 7.13967Z" fill="#176B87"/>
<path fill-rule="evenodd" clip-rule="evenodd" d="M5.0272 23.6998C9.54635 23.6422 13.6864 24.8741 17.4473 27.3963C19.4189 28.7764 21.3901 30.1562 23.3617 31.5363C20.0372 33.9698 16.4886 36.0398 12.7158 37.7464C10.0361 38.9497 7.27583 39.2454 4.43576 38.6336C1.49544 37.1434 0.0168559 34.7283 0 31.3885C0.065945 27.6932 1.74178 25.1305 5.0272 23.6998Z" fill="#176B87"/>
<path fill-rule="evenodd" clip-rule="evenodd" d="M54.1163 24.2913C60.8338 24.1573 63.7416 27.4102 62.84 34.05C61.9268 37.8721 59.5117 39.7449 55.5949 39.6686C52.4363 39.2561 49.4792 38.221 46.7234 36.5636C44.3745 35.1015 42.1075 33.5245 39.9219 31.8321C44.2056 28.4582 48.9371 25.9446 54.1163 24.2913Z" fill="#176B87"/>
<path fill-rule="evenodd" clip-rule="evenodd" d="M30.1631 27.8399C34.7308 27.7207 36.2587 29.7907 34.7467 34.0499C32.124 36.2728 29.8568 35.9771 27.9452 33.1628C27.3112 30.7867 28.0505 29.0124 30.1631 27.8399Z" fill="#176B87"/>
<path fill-rule="evenodd" clip-rule="evenodd" d="M23.6574 37.5986C24.2489 37.5986 24.8403 37.5986 25.4318 37.5986C24.8737 42.6893 23.4445 47.5196 21.1438 52.0887C17.3551 57.1443 13.1163 57.5385 8.428 53.2716C5.61632 49.5098 5.86265 46.0102 9.16729 42.7736C13.632 39.9551 18.462 38.2302 23.6574 37.5986Z" fill="#176B87"/>
<path fill-rule="evenodd" clip-rule="evenodd" d="M37.5562 37.8943C43.0388 38.4189 48.1647 40.0453 52.9335 42.7736C57.0507 46.4352 57.248 50.3289 53.5249 54.4544C48.2147 58.3872 44.0253 57.4016 40.9569 51.4973C39.0046 47.1677 37.8708 42.6334 37.5562 37.8943Z" fill="#176B87"/>
<path fill-rule="evenodd" clip-rule="evenodd" d="M31.3461 40.5557C34.5212 44.5376 36.9363 48.9733 38.5912 53.863C39.4224 61.5082 36.0217 64.7117 28.3889 63.4738C24.3349 61.683 22.807 58.5779 23.8053 54.1587C25.6349 49.2158 28.1485 44.6816 31.3461 40.5557Z" fill="#176B87"/>
</svg>
